<mxfile host="app.diagrams.net" agent="Mozilla/5.0 (Windows NT 10.0; Win64; x64) AppleWebKit/537.36 (KHTML, like Gecko) Chrome/140.0.0.0 Safari/537.36" version="28.2.5">
  <diagram name="Page-1" id="FRFs76Lm8cAUdWDIwzMV">
    <mxGraphModel dx="1042" dy="561" grid="0" gridSize="10" guides="1" tooltips="1" connect="1" arrows="1" fold="1" page="1" pageScale="1" pageWidth="827" pageHeight="1169" math="0" shadow="0">
      <root>
        <mxCell id="0" />
        <mxCell id="1" parent="0" />
        <mxCell id="7ep-YDegBzTAFs_BZFKH-1" value="User" style="shape=umlActor;verticalLabelPosition=bottom;verticalAlign=top;html=1;outlineConnect=0;" vertex="1" parent="1">
          <mxGeometry x="160" y="230" width="55" height="110" as="geometry" />
        </mxCell>
        <mxCell id="7ep-YDegBzTAFs_BZFKH-4" value="" style="group" vertex="1" connectable="0" parent="1">
          <mxGeometry x="280" y="50" width="280" height="470" as="geometry" />
        </mxCell>
        <mxCell id="7ep-YDegBzTAFs_BZFKH-2" value="" style="rounded=1;whiteSpace=wrap;html=1;" vertex="1" parent="7ep-YDegBzTAFs_BZFKH-4">
          <mxGeometry width="280" height="470" as="geometry" />
        </mxCell>
        <mxCell id="7ep-YDegBzTAFs_BZFKH-3" value="Mobile Application" style="text;html=1;align=center;verticalAlign=middle;whiteSpace=wrap;rounded=0;" vertex="1" parent="7ep-YDegBzTAFs_BZFKH-4">
          <mxGeometry x="28" width="212" height="30" as="geometry" />
        </mxCell>
        <mxCell id="7ep-YDegBzTAFs_BZFKH-6" value="View Map" style="ellipse;whiteSpace=wrap;html=1;" vertex="1" parent="7ep-YDegBzTAFs_BZFKH-4">
          <mxGeometry x="74" y="120" width="120" height="60" as="geometry" />
        </mxCell>
        <mxCell id="7ep-YDegBzTAFs_BZFKH-7" value="Find Position" style="ellipse;whiteSpace=wrap;html=1;" vertex="1" parent="7ep-YDegBzTAFs_BZFKH-4">
          <mxGeometry x="74" y="30" width="120" height="60" as="geometry" />
        </mxCell>
        <mxCell id="7ep-YDegBzTAFs_BZFKH-8" value="Change Layer Colour" style="ellipse;whiteSpace=wrap;html=1;" vertex="1" parent="7ep-YDegBzTAFs_BZFKH-4">
          <mxGeometry x="150" y="300" width="120" height="60" as="geometry" />
        </mxCell>
        <mxCell id="7ep-YDegBzTAFs_BZFKH-15" value="Share QR Code" style="ellipse;whiteSpace=wrap;html=1;" vertex="1" parent="7ep-YDegBzTAFs_BZFKH-4">
          <mxGeometry x="150" y="220" width="120" height="60" as="geometry" />
        </mxCell>
        <mxCell id="7ep-YDegBzTAFs_BZFKH-16" value="Scan QR Code" style="ellipse;whiteSpace=wrap;html=1;" vertex="1" parent="7ep-YDegBzTAFs_BZFKH-4">
          <mxGeometry x="150" y="380" width="120" height="60" as="geometry" />
        </mxCell>
        <mxCell id="7ep-YDegBzTAFs_BZFKH-28" value="" style="edgeStyle=orthogonalEdgeStyle;rounded=0;orthogonalLoop=1;jettySize=auto;html=1;jumpStyle=none;curved=0;dashed=1;" edge="1" parent="7ep-YDegBzTAFs_BZFKH-4" source="7ep-YDegBzTAFs_BZFKH-21" target="7ep-YDegBzTAFs_BZFKH-8">
          <mxGeometry relative="1" as="geometry" />
        </mxCell>
        <mxCell id="7ep-YDegBzTAFs_BZFKH-21" value="View Settings" style="ellipse;whiteSpace=wrap;html=1;" vertex="1" parent="7ep-YDegBzTAFs_BZFKH-4">
          <mxGeometry x="8" y="300" width="120" height="60" as="geometry" />
        </mxCell>
        <mxCell id="7ep-YDegBzTAFs_BZFKH-24" value="" style="endArrow=classic;html=1;rounded=0;entryX=0.5;entryY=1;entryDx=0;entryDy=0;exitX=0.5;exitY=0;exitDx=0;exitDy=0;jumpStyle=none;curved=0;dashed=1;" edge="1" parent="7ep-YDegBzTAFs_BZFKH-4" source="7ep-YDegBzTAFs_BZFKH-6" target="7ep-YDegBzTAFs_BZFKH-7">
          <mxGeometry width="50" height="50" relative="1" as="geometry">
            <mxPoint x="180" y="230" as="sourcePoint" />
            <mxPoint x="230" y="180" as="targetPoint" />
          </mxGeometry>
        </mxCell>
        <mxCell id="7ep-YDegBzTAFs_BZFKH-27" value="" style="endArrow=classic;html=1;rounded=0;exitX=1;exitY=0.5;exitDx=0;exitDy=0;entryX=0;entryY=0.5;entryDx=0;entryDy=0;jumpStyle=none;curved=0;dashed=1;" edge="1" parent="7ep-YDegBzTAFs_BZFKH-4" source="7ep-YDegBzTAFs_BZFKH-21" target="7ep-YDegBzTAFs_BZFKH-15">
          <mxGeometry width="50" height="50" relative="1" as="geometry">
            <mxPoint x="180" y="230" as="sourcePoint" />
            <mxPoint x="230" y="180" as="targetPoint" />
          </mxGeometry>
        </mxCell>
        <mxCell id="7ep-YDegBzTAFs_BZFKH-29" value="" style="endArrow=classic;html=1;rounded=0;exitX=1;exitY=0.5;exitDx=0;exitDy=0;entryX=0;entryY=0.5;entryDx=0;entryDy=0;jumpStyle=none;curved=0;dashed=1;" edge="1" parent="7ep-YDegBzTAFs_BZFKH-4" source="7ep-YDegBzTAFs_BZFKH-21" target="7ep-YDegBzTAFs_BZFKH-16">
          <mxGeometry width="50" height="50" relative="1" as="geometry">
            <mxPoint x="180" y="230" as="sourcePoint" />
            <mxPoint x="230" y="180" as="targetPoint" />
          </mxGeometry>
        </mxCell>
        <mxCell id="7ep-YDegBzTAFs_BZFKH-17" value="OpenStreetMaps API" style="shape=umlActor;verticalLabelPosition=bottom;verticalAlign=top;html=1;outlineConnect=0;" vertex="1" parent="1">
          <mxGeometry x="658" y="75" width="55" height="110" as="geometry" />
        </mxCell>
        <mxCell id="7ep-YDegBzTAFs_BZFKH-18" value="" style="endArrow=none;html=1;rounded=0;entryX=0;entryY=0.5;entryDx=0;entryDy=0;" edge="1" parent="1" source="7ep-YDegBzTAFs_BZFKH-1" target="7ep-YDegBzTAFs_BZFKH-6">
          <mxGeometry width="50" height="50" relative="1" as="geometry">
            <mxPoint x="250" y="120" as="sourcePoint" />
            <mxPoint x="510" y="230" as="targetPoint" />
          </mxGeometry>
        </mxCell>
        <mxCell id="7ep-YDegBzTAFs_BZFKH-20" value="Mobile Phone" style="shape=umlActor;verticalLabelPosition=bottom;verticalAlign=top;html=1;outlineConnect=0;" vertex="1" parent="1">
          <mxGeometry x="658" y="230" width="55" height="110" as="geometry" />
        </mxCell>
        <mxCell id="7ep-YDegBzTAFs_BZFKH-22" value="" style="endArrow=none;html=1;rounded=0;exitX=1;exitY=0.5;exitDx=0;exitDy=0;" edge="1" parent="1" source="7ep-YDegBzTAFs_BZFKH-6" target="7ep-YDegBzTAFs_BZFKH-17">
          <mxGeometry width="50" height="50" relative="1" as="geometry">
            <mxPoint x="460" y="280" as="sourcePoint" />
            <mxPoint x="510" y="230" as="targetPoint" />
          </mxGeometry>
        </mxCell>
        <mxCell id="7ep-YDegBzTAFs_BZFKH-23" value="" style="endArrow=none;html=1;rounded=0;entryX=1;entryY=0.5;entryDx=0;entryDy=0;" edge="1" parent="1" source="7ep-YDegBzTAFs_BZFKH-20" target="7ep-YDegBzTAFs_BZFKH-7">
          <mxGeometry width="50" height="50" relative="1" as="geometry">
            <mxPoint x="707.5" y="239.28932188134524" as="sourcePoint" />
            <mxPoint x="707.5" y="189.28932188134524" as="targetPoint" />
          </mxGeometry>
        </mxCell>
        <mxCell id="7ep-YDegBzTAFs_BZFKH-26" value="" style="endArrow=none;html=1;rounded=0;entryX=0;entryY=0.5;entryDx=0;entryDy=0;" edge="1" parent="1" source="7ep-YDegBzTAFs_BZFKH-1" target="7ep-YDegBzTAFs_BZFKH-21">
          <mxGeometry width="50" height="50" relative="1" as="geometry">
            <mxPoint x="240" y="370" as="sourcePoint" />
            <mxPoint x="295.71067811865476" y="285" as="targetPoint" />
          </mxGeometry>
        </mxCell>
        <mxCell id="7ep-YDegBzTAFs_BZFKH-30" value="" style="endArrow=none;html=1;rounded=0;" edge="1" parent="1" source="7ep-YDegBzTAFs_BZFKH-16" target="7ep-YDegBzTAFs_BZFKH-20">
          <mxGeometry width="50" height="50" relative="1" as="geometry">
            <mxPoint x="270" y="460" as="sourcePoint" />
            <mxPoint x="620.7106781186548" y="460" as="targetPoint" />
          </mxGeometry>
        </mxCell>
        <mxCell id="7ep-YDegBzTAFs_BZFKH-32" value="Second User" style="shape=umlActor;verticalLabelPosition=bottom;verticalAlign=top;html=1;outlineConnect=0;" vertex="1" parent="1">
          <mxGeometry x="658" y="381" width="55" height="110" as="geometry" />
        </mxCell>
        <mxCell id="7ep-YDegBzTAFs_BZFKH-33" value="" style="endArrow=none;html=1;rounded=0;entryX=1;entryY=0.5;entryDx=0;entryDy=0;" edge="1" parent="1" source="7ep-YDegBzTAFs_BZFKH-32" target="7ep-YDegBzTAFs_BZFKH-15">
          <mxGeometry width="50" height="50" relative="1" as="geometry">
            <mxPoint x="789" y="371" as="sourcePoint" />
            <mxPoint x="605" y="219" as="targetPoint" />
          </mxGeometry>
        </mxCell>
        <mxCell id="7ep-YDegBzTAFs_BZFKH-34" value="" style="endArrow=none;html=1;rounded=0;entryX=1;entryY=0.5;entryDx=0;entryDy=0;" edge="1" parent="1" source="7ep-YDegBzTAFs_BZFKH-32" target="7ep-YDegBzTAFs_BZFKH-16">
          <mxGeometry width="50" height="50" relative="1" as="geometry">
            <mxPoint x="706" y="480" as="sourcePoint" />
            <mxPoint x="598" y="372" as="targetPoint" />
          </mxGeometry>
        </mxCell>
      </root>
    </mxGraphModel>
  </diagram>
</mxfile>
